HIERARCHY
ROOT Root
{
	OFFSET 	 0.0	 0.0	 0.0
	CHANNELS 6 Xposition Yposition Zposition Xrotation Yrotation Zrotation 
	JOINT L_Femur
	{
		OFFSET 	 5.02377	 0.0	 0.0
		CHANNELS 3 Xrotation Yrotation Zrotation 
		JOINT L_Tibia
		{
			OFFSET 	 0.0	 -18.77975	 0.0
			CHANNELS 3 Xrotation Yrotation Zrotation 
			JOINT L_Foot
			{
				OFFSET 	 0.0	 -17.6338	 0.0
				CHANNELS 3 Xrotation Yrotation Zrotation 
				JOINT L_Toe
				{
					OFFSET 	 0.0	 -1.71554	 6.40249
					CHANNELS 3 Xrotation Yrotation Zrotation 
					End Site
					{
						OFFSET 	 0.0	 0.0	 2.95275
					}
				}
			}
		}
	}
	JOINT R_Femur
	{
		OFFSET 	 -5.02377	 0.0	 0.0
		CHANNELS 3 Xrotation Yrotation Zrotation 
		JOINT R_Tibia
		{
			OFFSET 	 0.0	 -18.77975	 0.0
			CHANNELS 3 Xrotation Yrotation Zrotation 
			JOINT R_Foot
			{
				OFFSET 	 0.0	 -17.6338	 0.0
				CHANNELS 3 Xrotation Yrotation Zrotation 
				JOINT R_Toe
				{
					OFFSET 	 0.0	 -1.71554	 6.40249
					CHANNELS 3 Xrotation Yrotation Zrotation 
					End Site
					{
						OFFSET 	 0.0	 0.0	 2.95275
					}
				}
			}
		}
	}
	JOINT LowerBack
	{
		OFFSET 	 0.0	 0.03937	 0.0
		CHANNELS 3 Xrotation Yrotation Zrotation 
		JOINT Thorax
		{
			OFFSET 	 0.0	 12.94332	 0.0
			CHANNELS 3 Xrotation Yrotation Zrotation 
			JOINT Neck
			{
				OFFSET 	 0.0	 6.49419	 0.0
				CHANNELS 3 Xrotation Yrotation Zrotation 
				JOINT Head
				{
					OFFSET 	 0.0	 7.97171	 0.0
					CHANNELS 3 Xrotation Yrotation Zrotation 
					End Site
					{
						OFFSET 	 0.0	 4.52755	 0.0
					}
				}
			}
			JOINT L_Collar
			{
				OFFSET 	 0.0	 6.49419	 0.0
				CHANNELS 3 Xrotation Yrotation Zrotation 
				JOINT L_Humerus
				{
					OFFSET 	 8.1957	 -3e-05	 0.0
					CHANNELS 3 Xrotation Yrotation Zrotation 
					JOINT L_Elbow
					{
						OFFSET 	 11.93308	 -4e-05	 0.0
						CHANNELS 3 Xrotation Yrotation Zrotation 
						JOINT L_Wrist
						{
							OFFSET 	 10.02508	 -4e-05	 0.0
							CHANNELS 3 Xrotation Yrotation Zrotation 
							JOINT L_Thumb
							{
								OFFSET 	 0.0	 0.0	 0.0
								CHANNELS 3 Xrotation Yrotation Zrotation 
								End Site
								{
									OFFSET 	 0.0	 0.0	 3.937
								}
							}
							End Site
							{
								OFFSET 	 3.937	 -1e-05	 0.0
							}
						}
					}
				}
			}
			JOINT R_Collar
			{
				OFFSET 	 0.0	 6.49419	 0.0
				CHANNELS 3 Xrotation Yrotation Zrotation 
				JOINT R_Humerus
				{
					OFFSET 	 -8.1957	 -3e-05	 0.0
					CHANNELS 3 Xrotation Yrotation Zrotation 
					JOINT R_Elbow
					{
						OFFSET 	 -11.93308	 -4e-05	 0.0
						CHANNELS 3 Xrotation Yrotation Zrotation 
						JOINT R_Wrist
						{
							OFFSET 	 -10.02508	 -4e-05	 0.0
							CHANNELS 3 Xrotation Yrotation Zrotation 
							JOINT R_Thumb
							{
								OFFSET 	 0.0	 0.0	 0.0
								CHANNELS 3 Xrotation Yrotation Zrotation 
								End Site
								{
									OFFSET 	 0.0	 0.0	 3.937
								}
							}
							End Site
							{
								OFFSET 	 -5.41338	 -2e-05	 0.0
							}
						}
					}
				}
			}
		}
	}
}
MOTION
Frames: 10
Frame Time: 0.008333
-17.317516215	47.0414154404	-148.281235044	166.665270619	-6.88454061124	179.059650725	-41.4055	3.536	-0.369	22.0384	-0.0	-0.0	-10.8036	8.3035	-16.3706	-10.9321	0.0	-0.0	4.13	-2.6284	-0.5858	11.0779	0.0	-0.0	-17.6208	4.4995	22.8717	-8.7798	0.0	-0.0	-16.0219	7.2375	4.6727	30.1515	2.7647	-6.1492	-2.5091	-1.4282	-2.4836	-14.5519	-6.1717	0.6722	-13.4192	0.0373	5.8478	12.9441	-13.8518	-86.1656	-0.0001	-13.3755	-0.0	3.9839	10.8479	5.0754	-0.0	0.0	-0.0	-18.7096	3.4911	-5.6526	-8.853	12.6859	68.1211	-0.0003	50.1894	0.0001	-16.3576	-10.1297	-13.8441	-0.0	0.0	-0.0	
-17.6723954798	47.4388981728	-148.928982878	166.263371571	-6.52749552528	179.256377968	-41.0899	2.7076	-0.874	23.0305	0.0	-0.0	-10.3461	9.007	-16.0878	-11.5174	0.0	-0.0	3.9311	-2.7562	-1.1496	12.9409	-0.0	0.0	-16.9972	4.8877	23.2341	-10.2248	0.0	0.0	-16.3977	7.4918	4.4585	30.0479	2.9161	-6.5018	-2.5258	-1.4889	-2.3619	-14.6662	-6.2165	0.583	-13.3196	-0.0992	5.8505	13.3806	-13.1865	-85.9697	-0.0001	-13.4967	-0.0	4.2235	10.7409	4.9691	-0.0	0.0	-0.0	-18.9695	3.4388	-5.5865	-8.1545	12.7376	68.2475	-0.0003	50.5634	0.0001	-15.639	-10.1184	-13.7061	-0.0	0.0	-0.0	
-17.841761721	47.6428002846	-149.279387184	166.044112039	-6.37517761976	179.368810781	-40.884	2.1593	-1.1913	23.4395	0.0	-0.0	-10.0814	9.5562	-15.8659	-11.2117	0.0	-0.0	3.7453	-2.776	-1.4488	13.9975	-0.0	0.0	-16.6168	5.0608	23.255	-10.8333	-0.0	0.0	-16.5988	7.6083	4.3369	29.9761	2.9653	-6.7038	-2.5461	-1.4968	-2.2836	-14.6505	-6.2496	0.5909	-13.1342	-0.1101	5.8851	13.3646	-12.9008	-85.8711	-0.0001	-13.5035	-0.0	4.3848	10.6778	4.9431	-0.0	0.0	-0.0	-19.0878	3.4113	-5.4847	-7.7222	12.761	68.2829	-0.0003	50.741	0.0001	-15.4168	-10.0672	-13.6417	-0.0	0.0	-0.0	
-18.0025552206	47.8418168831	-149.643442785	165.850293604	-6.26224342978	179.470476994	-40.633	1.589	-1.5225	23.8162	-0.0	-0.0	-9.8412	10.1509	-15.6644	-10.692	-0.0	-0.0	3.5405	-2.7279	-1.7241	15.1467	0.0	0.0	-16.1877	5.1739	23.1105	-11.3514	-0.0	0.0	-16.7819	7.7088	4.2159	29.9007	2.9905	-6.9077	-2.5633	-1.4939	-2.1927	-14.613	-6.2893	0.63	-12.9882	-0.1197	5.9355	13.3379	-12.658	-85.7669	-0.0001	-13.4837	-0.0	4.5856	10.616	4.9384	-0.0	0.0	-0.0	-19.1982	3.3778	-5.3483	-7.2396	12.7907	68.3121	-0.0003	50.907	0.0001	-15.2456	-9.9496	-13.6046	-0.0	0.0	-0.0	
-18.1569865618	48.0338384346	-150.015893462	165.721084993	-6.19657661118	179.547676575	-40.3086	1.0676	-1.8388	24.169	0.0	-0.0	-9.6244	10.6985	-15.5883	-10.2502	0.0	0.0	3.3592	-2.5871	-1.947	16.3947	-0.0	0.0	-15.7127	5.1963	22.7638	-11.7603	0.0	-0.0	-16.9203	7.7851	4.1015	29.8259	2.988	-7.0985	-2.5522	-1.4901	-2.0845	-14.6052	-6.3334	0.684	-12.8807	-0.1261	6.0036	13.3025	-12.4682	-85.6601	-0.0001	-13.4318	-0.0	4.7913	10.5521	4.9505	-0.0	0.0	-0.0	-19.2945	3.3392	-5.1974	-6.7156	12.8369	68.3563	-0.0003	51.0387	0.0001	-15.1104	-9.7052	-13.6123	-0.0	0.0	-0.0	
-18.3054708156	48.212571096	-150.394828965	165.648091476	-6.17152196249	179.603768451	-39.9236	0.6144	-2.1316	24.5096	0.0	-0.0	-9.4748	11.1856	-15.7316	-9.9572	0.0	-0.0	3.1835	-2.3735	-2.1251	17.7572	0.0	0.0	-15.1729	5.1439	22.3493	-12.0959	-0.0	-0.0	-17.0225	7.8391	3.9922	29.7555	2.9584	-7.2806	-2.5233	-1.4764	-1.9581	-14.6141	-6.3795	0.7527	-12.8035	-0.1248	6.0927	13.2486	-12.3401	-85.5528	-0.0	-13.346	-0.0	4.9748	10.4587	4.9899	-0.0	0.0	-0.0	-19.3813	3.3005	-5.0442	-6.1592	12.8767	68.4449	-0.0003	51.1361	0.0001	-15.0299	-9.4058	-13.6594	-0.0	0.0	-0.0	
-18.4476364097	48.3822432602	-150.781390283	165.60150914	-6.18942170866	179.640206916	-39.5045	0.1873	-2.4117	24.8359	0.0	-0.0	-9.3615	11.6346	-16.0279	-9.7592	-0.0	-0.0	2.9756	-2.1731	-2.2734	19.2131	0.0	-0.0	-14.4997	5.0315	22.1827	-12.4727	-0.0	-0.0	-17.1152	7.8589	3.8786	29.6897	2.905	-7.4417	-2.5029	-1.4549	-1.8227	-14.604	-6.4143	0.8075	-12.7694	-0.1151	6.1843	13.1887	-12.3063	-85.4419	-0.0	-13.2014	-0.0	5.0811	10.2914	5.0753	-0.0	0.0	-0.0	-19.4644	3.2773	-4.8936	-5.5695	12.8907	68.5823	-0.0003	51.2123	0.0001	-15.0532	-9.1299	-13.7501	-0.0	0.0	-0.0	
-18.8183842672	48.8649065819	-151.968348062	165.631122901	-6.60182019374	179.665799496	-38.0428	-0.8998	-3.2313	25.6759	0.0	0.0	-8.9398	12.5984	-16.8012	-9.333	0.0	-0.0	2.1236	-1.8094	-2.5928	24.1165	0.0	-0.0	-11.6508	4.495	22.8088	-14.1029	-0.0	0.0	-17.3416	7.6489	3.4598	29.5938	2.6004	-7.7316	-2.4698	-1.2974	-1.5087	-14.525	-6.4384	1.0875	-12.9595	-0.096	6.443	13.0091	-12.9115	-85.0991	-0.0	-12.7016	-0.0	4.5102	10.0685	5.4679	-0.0	0.0	-0.0	-19.209	3.2626	-4.5763	-4.2724	12.9292	69.2915	-0.0003	51.0807	0.0001	-14.7862	-9.5788	-13.5873	-0.0	0.0	-0.0	
-18.9298436794	49.0086835949	-152.363240911	165.674969062	-6.81875080305	179.674066833	-37.505	-1.1607	-3.4911	25.8953	0.0	-0.0	-8.8293	12.7322	-17.0017	-9.211	0.0	0.0	1.6969	-1.6114	-2.6566	26.0259	-0.0	0.0	-10.5618	4.2529	22.8939	-14.6295	-0.0	0.0	-17.3997	7.5055	3.2676	29.5827	2.4829	-7.7579	-2.4655	-1.2138	-1.4571	-14.4822	-6.4292	1.2435	-13.0872	-0.1133	6.5104	12.9473	-13.2311	-84.975	-0.0	-12.6206	-0.0	4.1181	10.1328	5.6045	-0.0	0.0	-0.0	-19.063	3.2775	-4.5464	-3.8722	12.9599	69.6284	-0.0003	50.9267	0.0001	-14.8437	-9.8819	-13.5325	-0.0	0.0	-0.0	
-19.037406061	49.1413118294	-152.755950482	165.730219324	-7.05559404205	179.695865812	-36.9344	-1.3696	-3.7427	26.0647	0.0	-0.0	-8.7647	12.7492	-17.1408	-9.0999	0.0	0.0	1.1632	-1.5027	-2.7428	28.0986	0.0	0.0	-9.4238	4.1041	22.854	-15.0907	-0.0	-0.0	-17.4513	7.3447	3.0553	29.5816	2.3604	-7.7723	-2.4668	-1.1232	-1.4163	-14.4305	-6.4135	1.4053	-13.2442	-0.1474	6.5685	12.8942	-13.5473	-84.8414	-0.0	-12.5931	-0.0	3.7018	10.1732	5.7452	-0.0	0.0	-0.0	-18.9358	3.3064	-4.5137	-3.4323	12.9862	69.9786	-0.0003	50.7407	0.0001	-14.9582	-10.1121	-13.5057	-0.0	0.0	-0.0	
